<svg xmlns="http://www.w3.org/2000/svg" viewBox="0 0 717.04 324.05"><defs><style>.cls-1{isolation:isolate;}.cls-2{fill:#fff;}.cls-3,.cls-4{fill:none;stroke:#000;stroke-linecap:round;stroke-linejoin:round;}.cls-3{stroke-width:3px;}.cls-4{stroke-width:4px;}.cls-5{fill:#00baa9;mix-blend-mode:multiply;}</style></defs><title>logo</title><g class="cls-1"><g id="Capa_1" data-name="Capa 1"><rect class="cls-2" x="142.27" y="147.13" width="220.84" height="220.84" transform="translate(-197.8 220.03) rotate(-53.58)"/><path d="M359.1,245.65a43.62,43.62,0,0,0-65.86-31.39,5,5,0,0,0-.36-1.58,2.12,2.12,0,0,0-1.36-1.25.91.91,0,0,0-.2,0c1.33-3.17-3.75-9.51-4.4-11.71a5.81,5.81,0,0,0-2-3c-.2-.15-.33-.23-.33-.23l-3-5.56c-.39-.71.36-1.42.75-1.73l.22-.16c1.19,3.53,4.52,6.06,7.1,6.41s9.76-1.32,12.37-1.68c2.11-.28,4.08-1.36,6.14-3.9a.7.7,0,0,0,.06.19c.57,1.2,1.64,0,1.73-1.93.05-1,1.3-2.66,2.44-4.33,4.2,1.59,3.55,4.27,2,6.77s-4.09,4.89-3.56,6.22,1.77.11,2-2,5.3-6.23,5.29-8.87c0-2.16-3.26-3.85-4.42-4.38a4,4,0,0,0,.52-1.86c0-.09.09-.17.13-.25.84-.22,1.67-.69.94-1.75.05-.08.08-.16.13-.23.67-.14,2.36-.64,1.27-2.22,0,0,2.51.21.89-1.87h0s1.82-.24.9-1.71l.41-.77a2.13,2.13,0,0,0-1.63-3.35c1.29-.55,2.28-2.37.23-3.14-1.42-.52-2.34.33-3.36.95a1.92,1.92,0,0,0-1.86-2.58c1.15-.58,1.94-2.32,0-2.89-2.28-.67-3,2.25-5.33,1.59s-4.5.44-6.37,2.3-11.68,2.25-18.18,3.1c-3.37.44-5.71,1.18-7.7-.46-1.17-2.35-2.16-6.15-3.15-12.25-.15-.95-.31-5.28-.93-9.79a15.6,15.6,0,0,0,4-.85,18,18,0,0,0,2.49-1.07s5.81,5.24,12.35,4.5c4.67-.53,4.93-9.1,4.93-9.1s3.72.27,3.89-.28-.76-2-1.9-3.35l-.26-.3a2.11,2.11,0,0,1-.34-1.66,6,6,0,0,0,1-2.95h0l1.55.46,1.14.36c5.87,2.19,3.08-12.54-2.85-18.42s-28.48-8.08-29.13-6.4a1.37,1.37,0,0,0,0,1.09,3.66,3.66,0,0,0,1.17,1.37,7.59,7.59,0,0,0,1.12.73,2.85,2.85,0,0,1-1,1.38c-1,.79-2.25,1.32-2.32,3.15v.27c.07,2.94-1.72,3.09.78,5.74a8.25,8.25,0,0,0,2.65,1.7h0s-4.65-2.13-4.71,0c0,1.4,1.62,3.14,2.78,4.18-.75-.52-1.72-1-2.39-.39s0,1.53.65,2.29a1.53,1.53,0,0,0-2.11.3,1.22,1.22,0,0,0,.11,2,8.11,8.11,0,0,0-.79-.28c-7.48-2.32-26.87,1.54-45,14.2-15.73,11-25.28,24.18-19.77,32.57h0c-4.45-.44-9.94-.75-8.39,2.9,0,.1.09.2.14.3,1.79,3.38,8.41,3.7,12.26,5.58a8.17,8.17,0,0,1,3.84,4.7,12.72,12.72,0,0,1,.69,2.77l2.85,8.71,7.07,21.57-7.22,10.11a43.6,43.6,0,1,0,18.7,48.3l4.85-.43c2.73,1.15,5.88,2.48,7.7,4.3a4.71,4.71,0,0,0,1.87,1.1l.09.19c-3.91.31-7.24.43-7.33,2.27-.14,2.59,6.52,1.69,9.37,1.2l.23,0a2.58,2.58,0,0,0,3.24-.48c4.36-.74,11.2-2.22,10.74-4.28-.07-.3-1.13-.42-2.75-.37a4.62,4.62,0,0,0,2.39-2,1.26,1.26,0,0,0,.07-.59l-.92.35.92-.35c-.3-2-6.94-2.08-11.31-5.57l.24-.25c.17-.17.33-.34.48-.52s.25-.29.37-.43l.42-.54.33-.49.36-.56c.1-.17.2-.35.29-.53s.21-.38.3-.57.17-.39.25-.59.17-.38.24-.58.14-.42.21-.63.12-.39.17-.58.1-.46.15-.69l.12-.57c0-.25.06-.49.08-.75s.05-.36.06-.54a8.19,8.19,0,0,0,0-.86c0-.15,0-.31,0-.46a12.12,12.12,0,0,0-.12-1.34A13.39,13.39,0,0,0,249,258c12.78-16,36-45,36.75-45.14.52-.07.86.54,1.08,1.17a7.58,7.58,0,0,1,.31,1.28,6.3,6.3,0,0,0,.79,2.79,43.6,43.6,0,1,0,71.2,27.55Zm-70.9-60.31a10,10,0,0,0-.21-1.59v0a1.69,1.69,0,0,0-1.11-1.12,22.2,22.2,0,0,0-.47-3c.75-.12,1.46-.26,2.11-.43,4.75-1.22,12.28-5.32,15.2-3.21a7.31,7.31,0,0,1,.62.48l-.83,1.7h0a46.69,46.69,0,0,1-2.2,4.2c-1.15,1.55-8.16,3.33-11.59,3.38A2.78,2.78,0,0,1,288.2,185.34Zm2.94,5.35a3.09,3.09,0,0,1-1.67-.53c2.84-.23,8.26-1.87,10.38-2.3,2.37-.49,4.47-2.07,6.62-6,.37-.68.82-1.56,1.3-2.55a5.54,5.54,0,0,0,1,.51l-2,3.5a50.26,50.26,0,0,1-2.77,4.52C302.58,189.48,294.86,190.88,291.14,190.69ZM315.36,169a11.71,11.71,0,0,0-2-.14,6.09,6.09,0,0,1,3.09-1.12A4.62,4.62,0,0,0,315.36,169Zm-3.79-6a4.29,4.29,0,0,0-1,1.22,10,10,0,0,0-1.81,0A5.64,5.64,0,0,1,311.57,163Zm-63.2,121.6h0Zm-24.84-63.81,3.05-.74-.33.47a13.71,13.71,0,0,1-1.16,1.38l-.86.83c-.29-.81-.51-1.4-.62-1.71Zm-32.8,79.78A31.73,31.73,0,1,1,202.92,242l-14.21,19.9-2.69.51h0l-.46,0a6,6,0,0,0-5.17,6.8c0,.21.08.42.13.63a.29.29,0,0,0,0,.09c.05.18.1.36.16.53l0,0a7.22,7.22,0,0,0,.31.69,18.49,18.49,0,0,0-1.62,1.85,5,5,0,0,0-1.1,2.27c-.24,2.27,6.62,1.24,10.58,3.58,1.35,1.28,2.59,2.45,3.45,3.24a3.38,3.38,0,0,0,1.09,1l.08.06h0a.59.59,0,0,0,.14.06,2.41,2.41,0,0,0,.42.16l.2.05a2,2,0,0,0,.43.07l.19,0a2.66,2.66,0,0,0,.63,0l20-1.78A31.72,31.72,0,0,1,190.73,300.57Zm1.84-39.4c3.66-4.52,9.86-12,13.64-16.89a31.8,31.8,0,0,1,9.51,12.53Zm50-7.7c-.41-.14-.84-.26-1.27-.36,0-1.82-.06-3.82,0-5.82,3,1.08,5.52,1.29,6.7-.12-2,2.4-3.5,4.17-4.19,5C243.35,252.63,243,253.07,242.59,253.47Zm2.95-6.67h0Zm-3.78-.48.31.08Zm1.11.27.34.06Zm1.39.18.33,0Zm-4.64-48.05c-.71-2.48-1.36-4.91-1.86-7.05-.27-1.13-.49-2.18-.66-3.11h1.09c3.76,0,7.79-.21,12.16-.6A87.64,87.64,0,0,0,239.62,198.72ZM217,203.81l-5.39-13.57a14,14,0,0,1-.64-1.76c1.58,3.06,3.31,6.3,4.85,9a44,44,0,0,0,3.26,5.12c2.37,2.93,6.18,7.61,8.5,12.94l-1.07.29c-3.56,1-5-.72-5-.72Zm2.14,23.72.07.06c-1.61,1.73-2.81,3.4-2.72,4.63a1.51,1.51,0,0,0,.35.9c.87,1,2.07,1.32,3.58,1.73-1.36,1.42,1.54,3.87,4.1,5.63.89,2.5,1.78,5.11,2.6,7.58a20.23,20.23,0,0,0,.83,2.88c.39,1,.77,2.17,1.14,3.34l-1.57.29a43.41,43.41,0,0,0-14.56-20C215.66,230.71,218.25,227.32,219.18,227.53Zm36.72,55.15.3-.12Zm-6.84,1.88.55-.05Zm.94-.11.55-.09Zm.95-.18.54-.12Zm1-.23.53-.14Zm1-.28.51-.16Zm1-.32.48-.17Zm1-.36.43-.16ZM279,209.91s-21.39,25.76-31,37.25a3.06,3.06,0,0,0,.45-.7c1.18-2.71-3.72-5.29-6.71-8.29a19.21,19.21,0,0,1,.6-3.33c1.62-5.31,3.7-13.1,2.34-19.18l33.15-8C280.8,206.89,279,209.91,279,209.91ZM246.93,246.7l.29,0Zm33.68-46.85a6.43,6.43,0,0,1-2.56,3.16s-15.74,3.87-29.85,7.37c3.68-3.88,7.39-7.55,9.38-9.33,4.38-3.94,13.76-15.19,10.43-20.91-2.12-3.64-11.36-7.64-18.74-10.32-1.81-.65-3.51-1.23-5-1.7-1.94-.62-3.44-1.06-4.2-1.25v-.06c.09-.42.83-3.18,5.68-3.35a37,37,0,0,0,13.61-3.76c1.38,2.61,2.67,4.92,3.56,6.61.34.73.64,1.4.89,2,2.56,5.89,7.1,13.9,9.36,12.88l.33-.12a13.25,13.25,0,0,1,2.23-.44c-.16.11-.32.23-.45.34-1.94,1.67-1.65,3.17-.79,5-1,1.69,0,3.48.94,5.8,1.29,3,2.7,1.74,2.7,1.74s2.33,3.64,2.48,5.7A2,2,0,0,1,280.61,199.85ZM320.17,283a31.72,31.72,0,0,1-26.08-54.49c3.21,4.67,11.17,14.68,13.2,17.65a17,17,0,0,0,4.21,4.52,3.39,3.39,0,0,0,0,.71,3.31,3.31,0,1,0,3.57-3.74l-.12-.27a9,9,0,0,0-.85-1.44s-9.39-11.91-15.57-21a31.74,31.74,0,1,1,21.62,58Z" transform="translate(-93.21 -87.92)"/><line class="cls-3" x1="283.71" y1="198.15" x2="46.93" y2="231.81"/><line class="cls-3" x1="286.02" y1="210.35" x2="50.15" y2="244.92"/><polyline class="cls-4" points="220.34 221.07 175.62 281.3 115.09 236.43"/><polyline class="cls-4" points="208.63 57.56 311.3 133.69 262.19 200.12"/><polyline class="cls-4" points="67.36 228.08 2 179.62 133.68 2 165.32 25.46"/><rect class="cls-4" x="380.57" y="273.46" width="6.75" height="6.75" transform="translate(-164.81 317.47) rotate(-51.55)"/><rect class="cls-4" x="129.7" y="311.27" width="6.75" height="6.75" transform="translate(-289.3 135.3) rotate(-51.55)"/><path class="cls-5" d="M346.94,248.44c-.58-13.75-12.71-23.09-27.78-23-15.4.08-27,10.23-28.82,23.35a17.54,17.54,0,0,0-.49,6.2,22.59,22.59,0,0,0,2.41,8c4.24,10.33,14.31,18.82,26.73,19.71,13.43,1,25.6-8.17,29.06-19.5A20,20,0,0,0,346.94,248.44Z" transform="translate(-93.21 -87.92)"/><path class="cls-5" d="M216.49,266.2c0-.38,0-.75-.06-1.12a14.2,14.2,0,0,0-3.42-8.45c-4.63-10.44-15.64-15.17-27.15-13.41a26.47,26.47,0,0,0-7.13,2.18,23.91,23.91,0,0,0-6.36,1.72c-12.38,5.3-13.45,25.59-8.67,36a27,27,0,0,0,14.68,14,26.11,26.11,0,0,0,11.52,4.17c9.19.87,19.58-5,23.74-13.25.33-.66.61-1.33.87-2a17.5,17.5,0,0,0,1.45-2.52A20.92,20.92,0,0,0,216.49,266.2Z" transform="translate(-93.21 -87.92)"/><rect class="cls-2" x="765.93" y="237.25" width="35.64" height="35.64" transform="translate(19.94 646.32) rotate(-53.58)"/><path d="M800.92,253.15a7,7,0,0,0-10.63-5.07.7.7,0,0,0-.06-.25.35.35,0,0,0-.22-.21h0c.22-.51-.6-1.54-.71-1.89a1,1,0,0,0-.33-.48l-.05,0-.49-.89c-.06-.12.06-.23.12-.28l0,0a1.58,1.58,0,0,0,1.14,1,13.72,13.72,0,0,0,2-.27,1.53,1.53,0,0,0,1-.64s0,0,0,0c.09.19.26,0,.28-.32s.21-.42.39-.69c.68.25.57.69.33,1.09s-.66.79-.58,1,.29,0,.33-.32.85-1,.85-1.43-.53-.62-.71-.7a.64.64,0,0,0,.08-.3l0,0c.14,0,.27-.11.15-.28l0,0c.11,0,.39-.11.21-.36,0,0,.41,0,.14-.3h0s.3,0,.15-.28l.07-.12a.35.35,0,0,0-.27-.55c.21-.08.37-.38,0-.5s-.38.05-.54.15a.31.31,0,0,0-.3-.41c.18-.1.31-.38,0-.47s-.48.36-.86.26a1,1,0,0,0-1,.37c-.3.3-1.88.36-2.93.5-.55.07-.92.19-1.24-.08a7.39,7.39,0,0,1-.51-2c0-.16,0-.86-.15-1.58a2.88,2.88,0,0,0,.64-.14,2.53,2.53,0,0,0,.4-.17,2.93,2.93,0,0,0,2,.72c.76-.08.8-1.47.8-1.47s.6.05.63,0-.13-.33-.31-.54l0,0a.34.34,0,0,1-.06-.27.94.94,0,0,0,.16-.47h0l.25.07.18.06c1,.35.5-2-.46-3s-4.59-1.31-4.7-1a.28.28,0,0,0,0,.18.66.66,0,0,0,.19.22,1.59,1.59,0,0,0,.18.12.45.45,0,0,1-.16.22c-.16.13-.37.21-.38.51v0c0,.48-.27.5.13.93a1.22,1.22,0,0,0,.43.27h0s-.75-.34-.76,0,.26.51.45.68c-.12-.08-.28-.16-.38-.06s0,.24.1.37a.24.24,0,0,0-.34,0,.2.2,0,0,0,0,.33l-.13,0c-1.21-.38-4.34.24-7.26,2.29-2.54,1.77-4.08,3.9-3.19,5.25h0c-.72-.07-1.61-.12-1.36.47l0,.05c.28.54,1.35.6,2,.9a1.3,1.3,0,0,1,.62.76,2,2,0,0,1,.11.44l.47,1.41,1.14,3.48L776.83,251a7,7,0,1,0,3,7.8l.78-.07a4,4,0,0,1,1.24.69.73.73,0,0,0,.31.18v0c-.63.05-1.17.07-1.18.37s1,.27,1.51.19h0a.41.41,0,0,0,.52-.07c.7-.12,1.81-.36,1.73-.69,0-.05-.18-.07-.44-.06a.71.71,0,0,0,.38-.33.16.16,0,0,0,0-.09l-.15.05.15-.05c0-.33-1.12-.34-1.83-.9l0,0,.08-.09.06-.07.06-.08.06-.08.06-.09,0-.09a.41.41,0,0,0,0-.09.3.3,0,0,0,0-.1l0-.09,0-.1,0-.1,0-.11s0-.06,0-.09,0-.08,0-.12,0-.06,0-.09v-.21a1.8,1.8,0,0,0,0-.22,2.16,2.16,0,0,0-.43-1c2.06-2.59,5.81-7.27,5.93-7.29s.14.09.17.19a.85.85,0,0,1,0,.21,1,1,0,0,0,.13.45,7,7,0,1,0,11.49,4.45Zm-11.44-9.74a1.87,1.87,0,0,0,0-.25h0a.27.27,0,0,0-.17-.18c0-.16,0-.34-.08-.49l.34-.07c.77-.2,2-.86,2.45-.52l.1.08-.13.28h0a5.74,5.74,0,0,1-.36.67,3.77,3.77,0,0,1-1.87.55A.43.43,0,0,1,789.48,243.41Zm.47.87a.51.51,0,0,1-.27-.09c.46,0,1.34-.3,1.68-.37a1.67,1.67,0,0,0,1.07-1l.21-.41.15.08-.33.57a7.61,7.61,0,0,1-.44.72A4.12,4.12,0,0,1,790,244.28Zm3.91-3.51-.32,0a1,1,0,0,1,.5-.18A1,1,0,0,0,793.86,240.77Zm-.61-1a.81.81,0,0,0-.16.2h-.29A.88.88,0,0,1,793.25,239.81Zm-10.2,19.62Zm-4-10.3.49-.12a.22.22,0,0,1,0,.08,1.44,1.44,0,0,1-.19.22,1.85,1.85,0,0,1-.14.14c0-.13-.08-.23-.09-.28ZM773.75,262a5,5,0,0,1-3.26-.65,5.12,5.12,0,0,1,1.88-9.5,5.07,5.07,0,0,1,3.35.7l-2.3,3.21-.43.08h-.08a1,1,0,0,0-.83,1.09.43.43,0,0,0,0,.11h0l0,.08h0a1.17,1.17,0,0,0,0,.11l-.26.3a.79.79,0,0,0-.18.37c0,.36,1.07.2,1.71.58l.56.52a.41.41,0,0,0,.17.15h0l.07,0h.24l3.23-.29A5.12,5.12,0,0,1,773.75,262Zm.3-6.36c.59-.73,1.59-1.93,2.2-2.73a5.16,5.16,0,0,1,1.53,2Zm8.07-1.24-.21-.06c0-.3,0-.62,0-.94.48.17.89.21,1.09,0l-.68.8Zm.47-1.08h0Zm-.61-.08,0,0Zm.18.05h0Zm.23,0h0Zm-.75-7.76c-.12-.4-.22-.79-.3-1.14-.05-.18-.08-.35-.11-.5h.18c.6,0,1.26,0,2-.09A13.77,13.77,0,0,0,781.64,245.57Zm-3.65.82-.87-2.19s0-.12-.1-.28c.26.49.54,1,.78,1.45a9.07,9.07,0,0,0,.53.83,9.23,9.23,0,0,1,1.37,2.08l-.17.05c-.58.16-.81-.12-.81-.12Zm.35,3.83h0a1.31,1.31,0,0,0-.44.75.25.25,0,0,0,.06.14,1,1,0,0,0,.58.28c-.22.23.25.63.66.91.14.4.29.83.42,1.22a2.75,2.75,0,0,0,.13.47c.06.17.13.35.19.54l-.26,0a7.07,7.07,0,0,0-2.35-3.23C777.77,250.73,778.19,250.19,778.34,250.22Zm5.92,8.9,0,0Zm-1.1.3h0Zm.15,0,.09,0Zm.16,0,.08,0Zm.15,0,.09,0Zm.16,0,.08,0Zm.15-.06.08,0Zm.16-.05.07,0Zm3.9-11.81-5,6,.07-.11c.19-.44-.6-.86-1.09-1.34a4.08,4.08,0,0,1,.1-.54,6.67,6.67,0,0,0,.38-3.09l5.35-1.3C788.28,246.89,788,247.38,788,247.38Zm-5.17,5.94h0Zm5.43-7.57a1,1,0,0,1-.41.51L783,247.45c.6-.62,1.2-1.22,1.52-1.5.7-.64,2.22-2.45,1.68-3.38-.34-.58-1.83-1.23-3-1.66l-.81-.28-.67-.2h0c0-.06.13-.51.91-.54a6.14,6.14,0,0,0,2.2-.6c.22.42.43.79.57,1.06l.15.32c.41,1,1.14,2.25,1.51,2.08l.05,0a2.3,2.3,0,0,1,.36-.07l-.07.06a.57.57,0,0,0-.13.8c-.15.28,0,.56.15.94s.44.28.44.28a3.07,3.07,0,0,1,.4.92A.31.31,0,0,1,788.25,245.75Zm6.39,13.42a5.12,5.12,0,0,1-4.21-8.8c.52.76,1.8,2.37,2.13,2.85a2.69,2.69,0,0,0,.68.73.48.48,0,0,0,0,.12.53.53,0,0,0,.6.45.53.53,0,0,0,0-1.06l0,0a1.25,1.25,0,0,0-.14-.23s-1.51-1.92-2.51-3.39a5,5,0,0,1,2.11-.78,5.12,5.12,0,0,1,1.38,10.15Z" transform="translate(-93.21 -87.92)"/><line class="cls-3" x1="710.58" y1="171.74" x2="672.37" y2="177.18"/><line class="cls-3" x1="710.96" y1="173.71" x2="672.89" y2="179.29"/><polyline class="cls-4" points="700.36 175.44 693.14 185.16 683.37 177.92"/><polyline class="cls-4" points="698.47 149.06 715.04 161.34 707.11 172.06"/><polyline class="cls-4" points="675.67 176.57 665.12 168.75 686.37 140.09 691.48 143.88"/><rect class="cls-4" x="804.38" y="257.63" width="1.09" height="1.09" transform="translate(9.02 640.12) rotate(-51.55)"/><rect class="cls-4" x="763.9" y="263.73" width="1.09" height="1.09" transform="translate(-11.06 610.74) rotate(-51.55)"/><path class="cls-5" d="M799,253.6c-.1-2.22-2.05-3.73-4.49-3.72a4.53,4.53,0,0,0-4.65,3.77,3.08,3.08,0,0,0-.08,1,3.66,3.66,0,0,0,.39,1.29,5.14,5.14,0,0,0,4.32,3.18,4.66,4.66,0,0,0,4.69-3.14A3.23,3.23,0,0,0,799,253.6Z" transform="translate(-93.21 -87.92)"/><path class="cls-5" d="M777.9,256.46v-.18a2.31,2.31,0,0,0-.56-1.36,3.94,3.94,0,0,0-4.38-2.17,4.53,4.53,0,0,0-1.15.36,3.66,3.66,0,0,0-1,.27c-2,.86-2.17,4.13-1.4,5.81a4.36,4.36,0,0,0,2.37,2.26,4.22,4.22,0,0,0,1.86.67,4.15,4.15,0,0,0,3.83-2.14l.14-.32c.08-.13.16-.27.23-.41A3.33,3.33,0,0,0,777.9,256.46Z" transform="translate(-93.21 -87.92)"/></g></g></svg>